<?xml version="1.0" encoding="UTF-8" standalone="no"?>
<!-- Created with Inkscape (http://www.inkscape.org/) -->

<svg
   width="92.767426mm"
   height="50.927227mm"
   viewBox="0 0 92.767424 50.927227"
   version="1.1"
   id="svg1"
   xml:space="preserve"
   sodipodi:docname="zombie.svg"
   inkscape:version="1.1.1 (3bf5ae0d25, 2021-09-20)"
   xmlns:inkscape="http://www.inkscape.org/namespaces/inkscape"
   xmlns:sodipodi="http://sodipodi.sourceforge.net/DTD/sodipodi-0.dtd"
   xmlns="http://www.w3.org/2000/svg"
   xmlns:svg="http://www.w3.org/2000/svg"><sodipodi:namedview
     id="namedview1"
     pagecolor="#ffffff"
     bordercolor="#000000"
     borderopacity="0.25"
     inkscape:showpageshadow="2"
     inkscape:pageopacity="0.0"
     inkscape:pagecheckerboard="0"
     inkscape:deskcolor="#d1d1d1"
     inkscape:document-units="mm"
     inkscape:zoom="0.25000001"
     inkscape:cx="215.99999"
     inkscape:cy="389.99999"
     inkscape:window-width="1366"
     inkscape:window-height="697"
     inkscape:window-x="-8"
     inkscape:window-y="-8"
     inkscape:window-maximized="1"
     inkscape:current-layer="layer1"
     inkscape:pageshadow="2"
     showgrid="false"
     fit-margin-top="0"
     fit-margin-left="0"
     fit-margin-right="0"
     fit-margin-bottom="0" /><defs
     id="defs1" /><g
     inkscape:label="Camada 1"
     inkscape:groupmode="layer"
     id="layer1"
     transform="translate(-5.5033045,-3.6614051)"><rect
       style="fill:#000000;fill-opacity:1;stroke-width:0.0355888"
       id="rect8-8"
       width="0.12681235"
       height="0.16274253"
       x="23.186367"
       y="8.7050247"
       ry="0.021060796"
       transform="rotate(0.79096664)" /><rect
       style="fill:#000000;fill-opacity:1;stroke-width:0.0241233"
       id="rect8-7-3-1"
       width="0.085957684"
       height="0.11031236"
       x="24.157339"
       y="2.1819696"
       ry="0.014275716"
       transform="rotate(16.338269)" /><rect
       style="fill:#000000;fill-opacity:1;stroke-width:0.0348647"
       id="rect8-7-5"
       width="0.12423223"
       height="0.15943138"
       x="23.762522"
       y="5.8298616"
       ry="0.020632293"
       transform="rotate(7.5727656)" /><rect
       style="fill:#000000;fill-opacity:1;stroke-width:0.0241233"
       id="rect8-7-3-1-0"
       width="0.085957684"
       height="0.11031236"
       x="-23.705215"
       y="-8.4619074"
       ry="0.014275716"
       transform="rotate(-176.55583)" /><rect
       style="fill:#000000;fill-opacity:1;stroke-width:0.0348647"
       id="rect8-7-5-0"
       width="0.12423223"
       height="0.15943138"
       x="-21.905773"
       y="-11.962801"
       ry="0.020632293"
       transform="rotate(174.67866)" /><rect
       style="fill:#000000;fill-opacity:1;stroke-width:0.0355888"
       id="rect8-8-6"
       width="0.12681235"
       height="0.16274253"
       x="-20.000782"
       y="-14.391554"
       ry="0.021060796"
       transform="rotate(167.89686)" /><path
       style="fill:#000000;fill-opacity:1;stroke-width:0.0762358"
       d="m 23.211686,8.993879 c 0.03308,0.1907168 -0.75896,-0.089869 -0.922575,-0.159461 -0.301848,-0.00389 -0.526782,0.018106 -0.665823,0.4075331 -0.150515,0.4215658 0.277998,0.6640079 0.834958,0.6100741 0.109096,-0.08341 0.945719,-0.043653 0.830878,0.020881 -0.742564,0.1800808 -1.404542,0.1184087 -1.968386,-0.2376698 l 0.335174,-0.9811443 z"
       id="path8"
       sodipodi:nodetypes="ccsccccc" /><path
       style="fill:#000000;fill-opacity:1;stroke:none;stroke-width:0.0381178"
       d="m 16.32954,7.6365357 c -1.374344,-2.3175682 2.894421,-5.1245529 5.03544,-3.4845038 1.616496,1.2382572 1.149803,1.7350335 1.274985,1.7404097 0.160879,0.045932 0.173859,0.2799874 0.142333,0.4079447 -0.02385,0.096787 -0.08647,0.1289422 -0.07071,0.2896702 0.17873,0.1814481 0.409878,0.3815923 0.364167,0.7796005 -0.03759,0.3272971 0.141366,0.6216673 -0.16117,0.6345496 0.04076,0.238949 0.486043,0.4887311 0.305294,0.9595493 0.0416,0.3000276 -1.518205,-0.7529738 -1.611626,0.4567715 0.02744,0.9398006 2.20911,-0.057108 1.892945,0.8362076 -0.311946,0.445609 0.279049,1.385579 -0.691644,1.30997 -0.281278,-0.02191 -0.450591,-0.525252 -0.991641,-0.654057 -1.766092,-0.420446 -4.64102,-1.8472088 -5.488375,-3.2761123 z"
       id="path1"
       sodipodi:nodetypes="sscscsccccsss" /><rect
       style="fill:#000000;fill-opacity:1;stroke-width:0.0459544"
       id="rect8"
       width="0.163748"
       height="0.21014327"
       x="23.875454"
       y="5.899838"
       ry="0.027195008"
       transform="rotate(7.5727655)" /><rect
       style="fill:#000000;fill-opacity:1;stroke-width:0.0348647"
       id="rect8-7"
       width="0.12423223"
       height="0.15943138"
       x="23.93078"
       y="4.5013838"
       ry="0.020632293"
       transform="rotate(10.892034)" /><rect
       style="fill:#000000;fill-opacity:1;stroke-width:0.0259135"
       id="rect8-7-3"
       width="0.092336774"
       height="0.11849886"
       x="24.028149"
       y="2.1918747"
       ry="0.015335146"
       transform="rotate(16.338269)" /><rect
       style="fill:#000000;fill-opacity:1;stroke-width:0.0459544"
       id="rect8-2"
       width="0.163748"
       height="0.21014327"
       x="-21.756716"
       y="-11.908937"
       ry="0.027195008"
       transform="rotate(174.67866)" /><rect
       style="fill:#000000;fill-opacity:1;stroke-width:0.0348647"
       id="rect8-7-9"
       width="0.12423223"
       height="0.15943138"
       x="-22.707865"
       y="-10.630772"
       ry="0.020632293"
       transform="rotate(177.99793)" /><rect
       style="fill:#000000;fill-opacity:1;stroke-width:0.0259135"
       id="rect8-7-3-7"
       width="0.092336774"
       height="0.11849886"
       x="-23.822874"
       y="-8.4397469"
       ry="0.015335146"
       transform="rotate(-176.55583)" /><path
       style="fill:#000000;fill-opacity:1;stroke:none;stroke-width:0.0762358;stroke-opacity:1"
       d="m 18.147906,27.70025 c -0.981303,0.437815 -1.029211,0.950295 -4.207542,1.21234 -2.0358,0.530472 -2.496001,-17.959313 -0.03566,-17.258056 2.029027,0.449336 4.662152,-1.7417306 7.095772,0.998401 0.04018,3.517974 -1.938305,3.302234 -3.316114,7.666285 0.155293,2.461433 1.748516,6.935973 0.463544,7.38103 z"
       id="path21"
       sodipodi:nodetypes="cccccc" /><path
       id="rect21"
       style="fill:#000000;stroke-width:0.0762358"
       d="m 19.295506,8.8925684 1.777229,0.9127494 c 0.02336,0.011992 0.03251,0.040458 0.02051,0.063825 -0.0749,0.4376822 -0.320701,0.6691332 -0.301063,1.1412472 0.01314,0.315791 -0.452898,0.200514 -0.507225,0.447656 -0.155476,0.707281 -0.670422,1.464081 -1.06052,2.049883 -0.012,0.02337 -0.04046,0.03251 -0.06383,0.02051 L 17.383378,12.61569 c -0.02336,-0.01199 -0.03251,-0.04046 -0.02051,-0.06382 1.731813,-1.560812 1.812854,-2.6037335 1.868808,-3.6387858 0.012,-0.023359 0.04046,-0.032507 0.06383,-0.020507 z"
       sodipodi:nodetypes="cccsscccccsc" /><path
       style="fill:#000000;fill-opacity:1;stroke:none;stroke-width:0.201707px;stroke-linecap:butt;stroke-linejoin:miter;stroke-opacity:1"
       d="m 19.816807,12.2819 c -1.168221,0.373999 -0.744123,3.032049 0.352988,3.050823 1.983782,0.13725 4.774108,-0.148116 7.264185,-0.664397 0.903607,0.209768 0.715859,-0.835801 0.715859,-0.835801 -0.135589,-0.369261 -0.360305,-0.454134 -0.567302,-0.466448 -1.513231,0.375327 -3.656615,-0.358226 -4.941828,0 C 22.038437,13.008084 20.28629,12.165192 19.816807,12.2819 Z"
       id="path2002"
       sodipodi:nodetypes="ccccccc" /><path
       style="fill:#000000;stroke:none;stroke-width:0.201707px;stroke-linecap:butt;stroke-linejoin:miter;stroke-opacity:1"
       d="m 27.582537,13.366077 c 1.021559,-2.168363 4.36273,-2.142105 5.357397,-4.8938305 0.924056,-0.6283699 1.183227,1.0866466 0.713143,1.3728008 -1.482659,0.3744417 -3.795415,5.3193987 -5.862525,4.8945927 z"
       id="path3443"
       sodipodi:nodetypes="ccccc" /><path
       style="fill:#000000;fill-opacity:1;stroke:none;stroke-width:0.201707px;stroke-linecap:butt;stroke-linejoin:miter;stroke-opacity:1"
       d="m 15.009799,11.754707 c -1.136816,-0.46072 -2.512974,1.852558 -1.68227,2.569451 1.43593,1.375621 3.761989,2.943044 6.005266,4.140846 0.55978,0.739694 1.085032,-0.183652 1.085032,-0.183652 0.132285,-0.37046 0.01402,-0.579537 -0.137101,-0.721534 -1.402683,-0.680601 -2.579398,-2.616458 -3.79598,-3.164204 -0.233409,-0.660612 -1.039594,-2.429949 -1.474947,-2.640907 z"
       id="path2002-5"
       sodipodi:nodetypes="ccccccc" /><path
       style="fill:#000000;stroke:none;stroke-width:0.201707px;stroke-linecap:butt;stroke-linejoin:miter;stroke-opacity:1"
       d="m 20.280726,17.559818 c 2.173073,-1.011493 4.722726,1.147997 7.248665,-0.32882 1.112137,0.108994 0.213106,1.592299 -0.331202,1.511116 -1.378631,-0.661712 -6.321346,1.655834 -7.637159,0.0061 z"
       id="path3443-4"
       sodipodi:nodetypes="ccccc" /><path
       style="fill:#000000;stroke:none;stroke-width:0.202025;stroke-linecap:butt;stroke-linejoin:miter;stroke-miterlimit:4;stroke-dasharray:none;stroke-opacity:1"
       d="m 13.940364,28.91259 c 1.48296,1.480256 5.169101,5.116964 7.666286,7.086859 0.44587,0.363394 2.864194,0.532668 2.88823,-0.525943 -1.693859,-2.462547 -4.421487,-5.550631 -5.829944,-7.951541 -0.361135,-0.643209 -5.620914,0.289826 -4.724572,1.390625 z"
       id="path4517"
       sodipodi:nodetypes="ccccc" /><path
       style="fill:#000000;stroke:none;stroke-width:0.201707px;stroke-linecap:butt;stroke-linejoin:miter;stroke-opacity:1"
       d="m 24.49488,35.473506 c 1.242057,5.027653 0.457485,8.081531 2.549485,11.338966 0.341895,0.355655 -0.497559,1.566653 -1.034058,0.927088 -1.651937,-3.979548 -3.045567,-3.812142 -4.243199,-6.560908 -0.226303,-1.282081 0.574219,-2.361763 -0.249601,-5.277265 z"
       id="path5434"
       sodipodi:nodetypes="cccccc" /><path
       style="fill:#000000;stroke:none;stroke-width:0.202025;stroke-linecap:butt;stroke-linejoin:miter;stroke-miterlimit:4;stroke-dasharray:none;stroke-opacity:1"
       d="m 13.567763,28.128863 c -0.138952,2.090691 -0.452182,7.259366 -0.292527,10.43599 0.01971,0.574864 1.483432,2.507343 2.296429,1.828905 0.739896,-2.895825 1.270661,-6.981722 2.151928,-9.622073 0.246748,-0.695164 -3.916643,-4.042108 -4.15583,-2.642822 z"
       id="path4517-8"
       sodipodi:nodetypes="ccccc" /><path
       style="fill:#000000;stroke:none;stroke-width:0.201707px;stroke-linecap:butt;stroke-linejoin:miter;stroke-opacity:1"
       d="m 15.571665,40.393758 c -2.968808,4.24337 -5.7847364,5.661913 -6.8612549,9.380582 -0.042867,0.49147 -1.5071379,0.656124 -1.3785182,-0.168695 1.9098507,-3.862411 0.8668181,-4.80172 2.148754,-7.512201 0.8165621,-1.013982 2.1563291,-1.121551 3.8097811,-3.660242 z"
       id="path5434-2"
       sodipodi:nodetypes="cccccc" /><path
       style="fill:#000000;fill-opacity:1;stroke:none;stroke-width:0.201707px;stroke-linecap:butt;stroke-linejoin:miter;stroke-opacity:1"
       d="m 27.044365,46.812472 c 4.122723,0.417757 3.639442,-1.201614 5.562517,-1.319315 0.552414,-0.178407 1.241077,0.5564 -1.105372,2.745595 -4.410175,0.755002 -2.433629,2.17818 -4.956344,2.032463 -0.506287,0.05916 -0.136552,-2.502152 -0.784457,-2.745603 -0.01537,-0.648134 0.843098,-1.119676 1.283656,-0.71314 z"
       id="path6383"
       sodipodi:nodetypes="cccccc" /><path
       style="fill:#000000;fill-opacity:1;stroke:none;stroke-width:0.201707px;stroke-linecap:butt;stroke-linejoin:miter;stroke-opacity:1"
       d="m 8.7104101,49.77434 c 1.8856199,3.689966 2.9838089,2.405477 4.1259439,3.95712 0.449555,0.367273 0.205871,1.344418 -2.9061203,0.560897 -3.0267472,-3.295217 -3.1500321,-0.862738 -4.3961832,-3.061013 -0.3243559,-0.393225 2.0278738,-1.472122 1.8809018,-2.14847 0.536133,-0.364522 1.3979699,0.100829 1.2954578,0.691466 z"
       id="path6383-0"
       sodipodi:nodetypes="cccccc" /><path
       style="fill:#000000;fill-opacity:1;stroke:none;stroke-width:0.226797px;stroke-linecap:butt;stroke-linejoin:miter;stroke-opacity:1"
       d="m 32.939934,8.4722465 c 2.476615,-1.189952 2.172106,-1.3259323 3.600553,-1.7146618 0.875036,0.2524481 1.976905,0.9416253 2.302929,1.1539245 5.51e-4,0.7989295 -1.366345,-0.3374563 -2.164424,-0.3299311 -0.428649,0.00906 -0.682138,0.1273611 -1.130782,0.6915191 0.06036,0.6838516 0.555742,0.9559304 1.27137,0.7030013 0.227265,0.068376 0.232081,0.5222718 -0.02228,0.4927822 -1.18489,0.2651238 -2.273828,0.2379816 -3.517583,0.29379 z"
       id="path7813"
       sodipodi:nodetypes="ccccccccc" /><path
       style="fill:#000000;fill-opacity:1;stroke:none;stroke-width:0.226797px;stroke-linecap:butt;stroke-linejoin:miter;stroke-opacity:1"
       d="m 27.292245,17.370624 c 2.679065,-0.610109 2.412368,-0.810327 3.891476,-0.872056 0.797099,0.440508 1.71836,1.357228 1.989081,1.63664 -0.176925,0.779092 -1.257253,-0.632528 -2.037067,-0.802466 -0.419953,-0.08638 -0.693386,-0.02737 -1.256137,0.423063 -0.09305,0.680184 0.329526,1.055501 1.083454,0.967845 0.2064,0.117166 0.110275,0.560775 -0.131186,0.475521 -1.214179,-0.0046 -2.269883,-0.273039 -3.494964,-0.494885 z"
       id="path7813-0"
       sodipodi:nodetypes="ccccccccc" /><g
       id="g10356"
       transform="matrix(0.76235823,0,0,0.76235823,-12.313215,0.94141708)"><rect
         style="fill:#000000;fill-opacity:1;stroke-width:0.0466825"
         id="rect8-8-4"
         width="0.16634221"
         height="0.21347252"
         x="93.367302"
         y="10.324554"
         ry="0.027625853"
         transform="rotate(0.79096664)" /><rect
         style="fill:#000000;fill-opacity:1;stroke-width:0.031643"
         id="rect8-7-3-1-8"
         width="0.11275235"
         height="0.14469886"
         x="92.04422"
         y="-15.065447"
         ry="0.018725732"
         transform="rotate(16.338269)" /><rect
         style="fill:#000000;fill-opacity:1;stroke-width:0.0457327"
         id="rect8-7-5-3"
         width="0.16295782"
         height="0.20912921"
         x="93.553391"
         y="-0.8732571"
         ry="0.027063778"
         transform="rotate(7.5727656)" /><rect
         style="fill:#000000;fill-opacity:1;stroke-width:0.031643"
         id="rect8-7-3-1-0-3"
         width="0.11275235"
         height="0.14469886"
         x="-93.929756"
         y="-7.092679"
         ry="0.018725732"
         transform="rotate(-176.55583)" /><rect
         style="fill:#000000;fill-opacity:1;stroke-width:0.0457327"
         id="rect8-7-5-0-6"
         width="0.16295782"
         height="0.20912921"
         x="-91.446129"
         y="-21.307182"
         ry="0.027063778"
         transform="rotate(174.67866)" /><rect
         style="fill:#000000;fill-opacity:1;stroke-width:0.0466825"
         id="rect8-8-6-5"
         width="0.16634221"
         height="0.21347252"
         x="-87.845413"
         y="-31.859293"
         ry="0.027625853"
         transform="rotate(167.89686)" /><path
         style="fill:#000000;fill-opacity:1;stroke-width:0.1"
         d="m 93.409617,11.572596 c 0.04339,0.250167 -0.995542,-0.117883 -1.210159,-0.209168 -0.39594,-0.0051 -0.69099,0.02375 -0.873373,0.534569 -0.197434,0.552976 0.364655,0.870992 1.09523,0.800246 0.143104,-0.10941 1.240519,-0.05726 1.089879,0.02739 -0.974035,0.236216 -1.842365,0.155319 -2.581969,-0.311756 l 0.439654,-1.286986 z"
         id="path8-8"
         sodipodi:nodetypes="ccsccccc" /><path
         style="fill:#000000;fill-opacity:1;stroke:none;stroke-width:0.0499999"
         d="m 84.382173,9.792143 c -1.802753,-3.039999 3.796668,-6.721975 6.605085,-4.570691 2.120388,1.624246 1.508218,2.275877 1.672422,2.282929 0.211028,0.06025 0.228054,0.367265 0.186701,0.535109 -0.03128,0.126957 -0.113427,0.169136 -0.09275,0.379966 0.234443,0.238009 0.537645,0.500542 0.477684,1.022617 -0.04931,0.429322 0.185433,0.815453 -0.211409,0.832351 0.05347,0.313434 0.637552,0.641078 0.400459,1.258659 0.05457,0.393552 -1.991458,-0.98769 -2.114,0.599156 0.03599,1.232754 2.897732,-0.07491 2.483012,1.09687 -0.409185,0.584513 0.366034,1.817491 -0.907243,1.718312 -0.368957,-0.02874 -0.591049,-0.688983 -1.300754,-0.857939 -2.316617,-0.551507 -6.087716,-2.423019 -7.199207,-4.297339 z"
         id="path1-8"
         sodipodi:nodetypes="sscscsccccsss" /><rect
         style="fill:#000000;fill-opacity:1;stroke-width:0.0602793"
         id="rect8-4"
         width="0.2147914"
         height="0.27564898"
         x="93.701523"
         y="-0.7814678"
         ry="0.035672218"
         transform="rotate(7.5727655)" /><rect
         style="fill:#000000;fill-opacity:1;stroke-width:0.0457327"
         id="rect8-7-8"
         width="0.16295782"
         height="0.20912921"
         x="93.176109"
         y="-6.2135539"
         ry="0.027063778"
         transform="rotate(10.892034)" /><rect
         style="fill:#000000;fill-opacity:1;stroke-width:0.0339913"
         id="rect8-7-3-18"
         width="0.12111993"
         height="0.15543725"
         x="91.874763"
         y="-15.052454"
         ry="0.020115407"
         transform="rotate(16.338269)" /><rect
         style="fill:#000000;fill-opacity:1;stroke-width:0.0602793"
         id="rect8-2-0"
         width="0.2147914"
         height="0.27564898"
         x="-91.250603"
         y="-21.236526"
         ry="0.035672218"
         transform="rotate(174.67866)" /><rect
         style="fill:#000000;fill-opacity:1;stroke-width:0.0457327"
         id="rect8-7-9-3"
         width="0.16295782"
         height="0.20912921"
         x="-92.718163"
         y="-15.919508"
         ry="0.027063778"
         transform="rotate(177.99793)" /><rect
         style="fill:#000000;fill-opacity:1;stroke-width:0.0339913"
         id="rect8-7-3-7-7"
         width="0.12111993"
         height="0.15543725"
         x="-94.084091"
         y="-7.063611"
         ry="0.020115407"
         transform="rotate(-176.55583)" /></g><path
       style="fill:#000000;fill-opacity:1;stroke:none;stroke-width:0.0762358;stroke-opacity:1"
       d="m 57.186368,38.382938 c -0.981304,0.437815 -1.029212,0.950295 -4.207543,1.21234 -2.0358,0.530472 -2.496001,-17.959313 -0.03566,-17.258056 2.029027,0.449336 4.662152,-1.741731 7.095772,0.998401 0.04018,3.517974 -1.938305,3.302234 -3.316114,7.666285 0.155293,2.461433 1.748516,6.935973 0.463543,7.38103 z"
       id="path21-3"
       sodipodi:nodetypes="cccccc" /><path
       id="rect21-5"
       style="fill:#000000;stroke-width:0.0762358"
       d="m 54.738463,14.331745 1.995241,0.10329 c 0.02622,0.0014 0.04624,0.02356 0.04489,0.04979 0.111252,0.429883 -0.01795,0.7418 0.193639,1.164298 0.141533,0.282603 -0.330769,0.368665 -0.278923,0.616339 0.148374,0.708806 -0.01076,1.610244 -0.126196,2.304518 -0.0014,0.02623 -0.02356,0.04624 -0.04979,0.04489 l -1.99524,-0.103289 c -0.02623,-0.0014 -0.04624,-0.02356 -0.04489,-0.04979 0.939038,-2.133898 0.585085,-3.118261 0.21148,-4.085154 0.0014,-0.02623 0.02356,-0.04625 0.04979,-0.04489 z"
       sodipodi:nodetypes="cccsscccccsc" /><path
       style="fill:#000000;fill-opacity:1;stroke:none;stroke-width:0.201707px;stroke-linecap:butt;stroke-linejoin:miter;stroke-opacity:1"
       d="m 74.435429,8.1528581 c -0.31181,-1.1863342 -2.988537,-0.9031349 -3.065201,0.1914547 -0.241772,1.9737712 -0.104097,4.7752732 0.280021,7.2891302 -0.257167,0.891272 0.796852,0.758978 0.796852,0.758978 0.375905,-0.115908 0.472524,-0.335828 0.495745,-0.541889 -0.294932,-1.530933 0.550742,-3.632607 0.260858,-4.934938 0.389281,-0.582536 1.323489,-2.2877469 1.231725,-2.7627359 z"
       id="path2002-5-0"
       sodipodi:nodetypes="ccccccc" /><path
       style="fill:#000000;stroke:none;stroke-width:0.201707px;stroke-linecap:butt;stroke-linejoin:miter;stroke-opacity:1"
       d="m 80.996465,8.4566122 c 0.867708,2.2343798 -1.453375,4.6378578 -0.144338,7.2546828 -0.18125,1.102672 -1.602797,0.10887 -1.486316,-0.42899 0.750168,-1.33257 -1.240296,-6.4158291 0.491698,-7.6213173 z"
       id="path3443-4-8"
       sodipodi:nodetypes="ccccc" /><path
       style="fill:#000000;stroke:none;stroke-width:0.202025;stroke-linecap:butt;stroke-linejoin:miter;stroke-miterlimit:4;stroke-dasharray:none;stroke-opacity:1"
       d="m 71.122306,25.460461 c -0.08034,2.093763 -0.248685,7.269183 -1.22e-4,10.44009 0.03581,0.574086 1.553077,2.464812 2.346753,1.763869 0.658502,-2.915412 1.07462,-7.014572 1.881591,-9.67857 0.227183,-0.701803 -4.028321,-3.930824 -4.228222,-2.525389 z"
       id="path4517-8-4"
       sodipodi:nodetypes="ccccc" /><path
       style="fill:#000000;stroke:none;stroke-width:0.201707px;stroke-linecap:butt;stroke-linejoin:miter;stroke-opacity:1"
       d="m 84.662142,26.097379 c -0.635463,5.139668 -2.458979,7.711928 -1.668329,11.501687 0.192343,0.454293 -1.024267,1.285624 -1.296962,0.496635 -0.121711,-4.307082 -1.483214,-4.648438 -1.620149,-7.643653 0.246539,-1.278337 1.379846,-2.000914 1.651619,-5.018364 z"
       id="path5434-2-3"
       sodipodi:nodetypes="cccccc" /><path
       style="fill:#000000;fill-opacity:1;stroke:none;stroke-width:0.201707px;stroke-linecap:butt;stroke-linejoin:miter;stroke-opacity:1"
       d="m 92.328554,31.795509 c 3.516065,2.192849 3.796361,0.526308 5.574287,1.268644 0.574475,0.08346 0.868562,1.046634 -2.202766,1.976852 -4.2912,-1.267012 -3.144727,0.881888 -5.344695,-0.36128 -0.480499,-0.170149 0.980759,-2.305977 0.506587,-2.810174 0.271971,-0.588513 1.250428,-0.633185 1.466587,-0.07404 z"
       id="path6383-2"
       sodipodi:nodetypes="cccccc" /><path
       style="fill:#000000;fill-opacity:1;stroke:none;stroke-width:0.226797px;stroke-linecap:butt;stroke-linejoin:miter;stroke-opacity:1"
       d="m 87.510252,8.4595992 c 0.602911,2.6806878 0.803853,2.4145298 0.861602,3.8937968 -0.442648,0.795915 -1.361831,1.714715 -1.641968,1.984685 -0.778619,-0.179018 0.635899,-1.25555 0.807925,-2.034908 0.0875,-0.419723 0.0292,-0.693309 -0.419694,-1.25727 -0.679924,-0.09485 -1.056377,0.32669 -0.970748,1.080853 -0.117701,0.206086 -0.561066,0.108771 -0.475171,-0.13244 0.0079,-1.214161 0.27913,-2.2691411 0.504277,-3.4936234 z"
       id="path7813-1"
       sodipodi:nodetypes="ccccccccc" /></g></svg>
