<?xml version="1.0" encoding="UTF-8" standalone="no"?>
<!-- Created with Inkscape (http://www.inkscape.org/) -->

<svg
   width="210mm"
   height="297mm"
   viewBox="0 0 210 297"
   version="1.1"
   id="svg1"
   xml:space="preserve"
   inkscape:version="1.3 (0e150ed6c4, 2023-07-21)"
   sodipodi:docname="guns.svg"
   xmlns:inkscape="http://www.inkscape.org/namespaces/inkscape"
   xmlns:sodipodi="http://sodipodi.sourceforge.net/DTD/sodipodi-0.dtd"
   xmlns="http://www.w3.org/2000/svg"
   xmlns:svg="http://www.w3.org/2000/svg"><sodipodi:namedview
     id="namedview1"
     pagecolor="#ffffff"
     bordercolor="#000000"
     borderopacity="0.25"
     inkscape:showpageshadow="2"
     inkscape:pageopacity="0.0"
     inkscape:pagecheckerboard="0"
     inkscape:deskcolor="#d1d1d1"
     inkscape:document-units="mm"
     inkscape:zoom="5.6568542"
     inkscape:cx="27.400388"
     inkscape:cy="40.923805"
     inkscape:window-width="1920"
     inkscape:window-height="1017"
     inkscape:window-x="-8"
     inkscape:window-y="-8"
     inkscape:window-maximized="1"
     inkscape:current-layer="g4" /><defs
     id="defs1" /><g
     inkscape:label="Camada 1"
     inkscape:groupmode="layer"
     id="layer1"><path
       id="path1"
       style="fill:#000000;stroke:#000000;stroke-width:0.02968"
       d="m 7.6670325,5.6404578 c -0.043698,-2.43e-4 -0.085646,0.085136 -0.1380383,0.1874253 -0.024521,0.014012 -0.2322659,-0.025356 -0.2691745,0.021165 -0.1148173,0.1447196 0.010515,0.5790665 -0.032362,0.8319107 -0.00999,0.0589 -0.2079953,0.1746777 0.011044,0.2300637 1.3626854,0.4273778 -0.080073,1.47899 -0.3661082,2.8515645 0.02521,0.056118 0.2218131,0.287359 0.3317521,0.284971 0.3834985,-0.0083 -0.0061,0.175883 0.1311362,0.312274 v 1.53e-4 l 1.3509344,0.109203 C 8.8173187,10.449358 8.7954171,10.332237 8.7928121,10.227314 9.0373459,10.206037 8.9053494,10.11213 8.9161264,9.9474036 8.9385385,9.7702851 8.9520329,9.6413727 9.1900556,9.5041474 9.096293,9.2982596 9.1846943,9.0045085 9.4557024,8.8449383 9.2993633,8.6041639 9.5719421,8.2401115 9.7679756,8.1940111 c 0.083231,-0.019574 0.2612754,0.1569949 0.3694834,0.1455535 0.357576,-0.037807 1.604874,0.072389 1.549709,-0.076688 -0.162935,-0.4294936 0.0034,-0.8012169 0.06365,-0.9713296 0.06037,-0.1705649 0.822469,-0.08623 1.466578,-0.1010747 0.04751,-0.088789 0.200652,-0.062695 0.337581,-0.04586 0.141912,0.017449 0.157721,-0.1531573 0.239266,-0.2573645 -0.0043,-0.079283 0.03374,-0.218643 -0.005,-0.3000032 -0.02331,-0.048874 -0.02534,-0.085088 -0.02577,-0.1231608 0.02339,-0.030145 0.04868,-0.046818 0.09816,-0.069479 0.03076,-0.112341 0.02696,-0.4836012 -0.03973,-0.4477043 C 13.618657,5.8676938 13.501404,5.4315864 13.37967,5.8449067 L 7.7782308,5.8286479 C 7.7361006,5.6926811 7.7010209,5.6406449 7.6670334,5.6404558 Z m 3.4474285,1.576857 c 0.09517,0.00775 0.265364,0.1500008 0.275463,0.2472418 0.01562,0.1502253 0.0069,0.2519938 0.0054,0.4161087 -9.14e-4,0.1022955 -0.148963,0.2249136 -0.250769,0.2605862 -0.21654,0.058487 -0.663342,0.019015 -0.98544,0.00797 -0.2066303,-0.046155 -0.4792061,-0.303782 -0.2878864,-0.5964792 0.064883,-0.035669 0.042501,0.064969 0.046477,0.1049092 -0.025824,0.010984 0.1380494,0.00577 0.2174854,0.0477 0.02433,0.099156 0.417225,0.4557957 0.483441,0.3592062 0.01446,-0.021098 -0.02362,-0.037958 -0.005,-0.061657 0.0225,-0.028717 0.07394,3.6e-5 0.08543,-0.022394 0.0226,-0.044145 -0.213849,-0.2175331 -0.283438,-0.3421812 -0.03873,-0.1109274 -0.04215,-0.2182483 -0.02102,-0.3256168 0.0095,-0.057503 0.48149,-0.096528 0.719947,-0.0954 z"
       sodipodi:nodetypes="ccccccscccccccsscscscscccccccccscccccscccccc" /><g
       id="g3"
       transform="matrix(0,0.6291373,-0.6291373,0,29.527736,-12.871421)"><path
         style="fill:#f9ff0f;fill-opacity:1;stroke:none;stroke-width:0.1;stroke-opacity:1"
         d="m 30.865299,6.4533528 c -0.212145,-2.2689939 0.594646,-4.8641705 2.554052,-5.2159556 1.480017,0.1093701 2.784766,2.4240824 2.556129,5.2463131 0.298591,-0.011959 0.53755,0.3790783 0.576294,0.5897597 l -0.0062,10.885124 c 0.572359,0.414911 0.731233,1.450709 -0.356467,1.820844 l -5.49744,0.0064 c -1.109955,-0.331335 -0.84407,-1.457747 -0.425814,-1.761131 l -0.0021,-10.9657394 c 0.05069,-0.2512062 0.256729,-0.5852245 0.601513,-0.6056478 z"
         id="path2"
         sodipodi:nodetypes="cccccccccc" /><path
         style="fill:none;fill-opacity:1;stroke:#ffffff;stroke-width:1.12298;stroke-linecap:round;stroke-dasharray:none;stroke-opacity:1"
         d="M 32.146874,7.6850438 V 17.152717"
         id="path3" /><g
         id="g4"
         transform="matrix(0.19491318,0,0,0.19491318,39.55833,39.648949)"><path
           style="fill:#ff5b05;stroke:none;stroke-width:1.74843;stroke-linecap:round;fill-opacity:1"
           d="m 42.866575,-12.521656 -10.25938,-9.069889 2.67636,-1.189495 -8.47513,-14.868668 6.09614,5.501409 h 3.27111 l -2.97373,-19.775328 1.78424,4.311915 0.29737,-2.676364 1.1895,0.89212 -0.0744,-0.743431 2.11879,1.263835 2.338,-38.766574 1.47192,14.508955 5.46714,27.756263 -0.8411,3.15412 4.41577,-0.630824 -2.73357,6.308242 1.26165,-0.42055 -1.26165,6.097967 h 3.3644 l 4.83631,-4.836318 -7.35961,11.985658 -0.42055,-2.313022 -3.57467,6.939066 2.5233,-0.841099 z"
           id="path4" /><path
           style="fill:#ffffff;fill-opacity:1;stroke:none;stroke-width:0.764111;stroke-linecap:round"
           d="m 42.267727,-15.202486 -2.715884,-6.54377 0.708491,-0.8582 -2.243553,-10.727491 1.613782,3.969174 h 0.865935 l -0.787212,-14.267562 0.472328,3.110972 0.07872,-1.93095 0.314887,0.643649 -0.0197,-0.536373 0.56089,0.911835 0.618921,-27.96942 0.389649,10.467964 1.447273,20.025668 -0.222658,2.275645 1.168952,-0.455129 -0.723636,4.551288 0.333986,-0.303419 -0.333986,4.399579 h 0.890631 l 1.280277,-3.489321 -1.948251,8.647448 -0.111329,-1.668807 -0.946294,5.006419 0.667974,-0.606839 z"
           id="path4-5" /></g></g></g></svg>
