<?xml version="1.0" encoding="UTF-8" standalone="no"?>
<!-- Created with Inkscape (http://www.inkscape.org/) -->

<svg
   width="45mm"
   height="60mm"
   viewBox="0 0 45 60"
   version="1.1"
   id="svg1"
   xml:space="preserve"
   inkscape:version="1.3 (0e150ed6c4, 2023-07-21)"
   sodipodi:docname="player_color.svg"
   xmlns:inkscape="http://www.inkscape.org/namespaces/inkscape"
   xmlns:sodipodi="http://sodipodi.sourceforge.net/DTD/sodipodi-0.dtd"
   xmlns="http://www.w3.org/2000/svg"
   xmlns:svg="http://www.w3.org/2000/svg"><sodipodi:namedview
     id="namedview1"
     pagecolor="#ffffff"
     bordercolor="#000000"
     borderopacity="0.25"
     inkscape:showpageshadow="2"
     inkscape:pageopacity="0.0"
     inkscape:pagecheckerboard="false"
     inkscape:deskcolor="#d1d1d1"
     inkscape:document-units="mm"
     inkscape:zoom="22.627417"
     inkscape:cx="43.796426"
     inkscape:cy="174.14714"
     inkscape:window-width="1920"
     inkscape:window-height="1017"
     inkscape:window-x="-8"
     inkscape:window-y="-8"
     inkscape:window-maximized="1"
     inkscape:current-layer="g17"
     inkscape:clip-to-page="false" /><defs
     id="defs1" /><g
     inkscape:label="Camada 1"
     inkscape:groupmode="layer"
     id="layer1"
     transform="translate(-10.584429,-19.935975)"><g
       id="g16"
       inkscape:label="corpo"
       transform="matrix(0.72000956,-0.02878814,0.02878814,0.72000956,23.663462,37.295135)"><path
         style="fill:#ffad59;fill-opacity:1;stroke-width:0.264583"
         d="m 33.113995,17.997778 c -0.409396,0.349648 0.03583,0.875579 -0.408917,1.136767 -0.334315,0.196332 -0.3367,0.887443 -0.210015,1.301323 1.05313,1.63997 2.442004,4.147925 2.48141,5.689153 -0.59357,6.023625 -1.375814,16.198968 -1.375814,16.198968 0.0098,0.829298 -7.018679,-1.178917 -7.056659,-2.353025 0,0 -0.725916,-13.140753 0.416364,-16.779169 0.64771,-2.063099 1.159063,-2.8318 2.328792,-3.876773 0.554742,-0.691516 0.956743,-1.837541 0.877259,-3.222193 -0.168722,-0.625013 3.282364,1.560885 2.94758,1.904949 z"
         id="path1"
         sodipodi:nodetypes="csccccsccc" /><path
         style="fill:#0099a6;fill-opacity:1;stroke-width:0.272093"
         d="m 32.394613,21.690634 c 0.05639,-0.177152 0.185987,-0.811313 0.06746,-1.215708 0.587576,0.816863 2.969263,2.606419 2.714181,5.765458 -0.242381,6.200799 -1.053453,16.568375 -1.428073,16.50476 -1.505501,-0.992689 -8.26619,2.451693 -8.488676,0.414206 0.376894,-3.761652 0.103904,-16.716789 1.011501,-20.336458 0.702447,-2.801494 3.010539,-2.86213 3.376079,-3.997612 0.455887,1.201382 1.373873,2.582874 2.747531,2.865354 z"
         id="path1-0"
         sodipodi:nodetypes="cccccsccc" /></g><g
       id="g17"
       inkscape:label="perna_d"
       transform="matrix(0.76687224,0,0,0.72722849,3.9239419,-3.1142971)"><path
         style="fill:#0f1012;fill-opacity:1;stroke:none;stroke-width:0.234965;stroke-opacity:1"
         d="m 16.420196,48.867332 c -1.356701,3.00418 1.221869,10.301975 0.871199,13.901078 0.0415,1.778709 5.43932,2.345874 5.464282,0.629049 0.79219,-3.428639 1.069668,-8.88968 1.027702,-13.451449 0.338937,-3.330907 -6.512574,-4.164747 -7.363179,-1.078675 z"
         id="path2"
         sodipodi:nodetypes="cccccc" /><path
         style="fill:#0f1012;fill-opacity:1;stroke:none;stroke-width:0.269826;stroke-opacity:1"
         d="m 17.131688,69.970603 c -0.0651,-2.44201 5.254268,-1.4068 5.501973,0.599351 0.495861,3.827512 -0.127449,9.656139 -1.602432,15.088415 0.0056,0.944015 -3.021147,1.665237 -3.035488,0.125342 -2.019523,-8.107179 -0.35602,-10.895139 -0.864048,-15.813108 z"
         id="path3"
         sodipodi:nodetypes="ccccc" /><path
         style="fill:#000000;fill-opacity:1;stroke:none;stroke-width:0.233938;stroke-opacity:1"
         d="m 20.519531,91.148935 c 0.174525,1.824654 0.386191,2.056717 1.366323,2.581657 0.6753,0.381316 1.637939,0.606261 2.515765,0.621162 0.63889,0.01085 1.150099,0.0758 1.553122,0.294756 0.661589,0.326526 0.438612,2.067798 0.147407,1.974595 -0.403464,0.07092 -9.011754,0.290255 -9.091967,-0.09803 -0.468661,-2.312824 0.54677,-3.60505 0.425764,-5.407117 8.47e-4,-0.337941 2.757219,0.315347 3.083586,0.03297 z"
         id="path4"
         sodipodi:nodetypes="ccsccccc" /><path
         id="path4-9"
         style="fill:#d7d7d7;fill-opacity:1;stroke:none;stroke-width:0.23447;stroke-opacity:1"
         d="m 16.882092,95.480384 c 0.0093,0.327572 0.04635,0.675291 0.122246,1.049791 0.08039,0.38914 8.707981,0.168642 9.11236,0.09762 0.175065,0.05602 0.323559,-0.548994 0.272859,-1.113183 -1.262896,0.07455 -8.300205,0.224398 -9.507465,-0.03419 z" /><ellipse
         style="fill:#d7d7d7;fill-opacity:1;stroke-width:0.354295"
         id="path9"
         cx="18.676752"
         cy="93.241554"
         rx="0.89961457"
         ry="0.94865566" /><ellipse
         style="fill:none;fill-opacity:1;stroke:#ffffff;stroke-width:0.0370155;stroke-dasharray:none;stroke-opacity:1"
         id="path11-7"
         cx="21.740786"
         cy="95.201408"
         rx="0.12855379"
         ry="0.1355617" /><ellipse
         style="fill:none;fill-opacity:1;stroke:#ffffff;stroke-width:0.0370155;stroke-dasharray:none;stroke-opacity:1"
         id="path11-7-5"
         cx="20.326683"
         cy="92.205055"
         rx="0.12855379"
         ry="0.1355617" /><ellipse
         style="fill:none;fill-opacity:1;stroke:#ffffff;stroke-width:0.0370155;stroke-dasharray:none;stroke-opacity:1"
         id="path11-7-0"
         cx="20.562876"
         cy="92.791626"
         rx="0.12855379"
         ry="0.1355617" /><ellipse
         style="fill:none;fill-opacity:1;stroke:#ffffff;stroke-width:0.0370155;stroke-dasharray:none;stroke-opacity:1"
         id="path11-7-3"
         cx="20.890701"
         cy="93.286125"
         rx="0.12855379"
         ry="0.1355617" /><ellipse
         style="fill:none;fill-opacity:1;stroke:#ffffff;stroke-width:0.0370155;stroke-dasharray:none;stroke-opacity:1"
         id="path11-7-6"
         cx="21.258587"
         cy="93.641914"
         rx="0.12855379"
         ry="0.1355617" /><ellipse
         style="fill:none;fill-opacity:1;stroke:#ffffff;stroke-width:0.0370155;stroke-dasharray:none;stroke-opacity:1"
         id="path11-7-60"
         cx="21.710339"
         cy="93.925346"
         rx="0.12855379"
         ry="0.1355617" /><ellipse
         style="fill:none;fill-opacity:1;stroke:#ffffff;stroke-width:0.0370155;stroke-dasharray:none;stroke-opacity:1"
         id="path11-7-2"
         cx="22.232647"
         cy="94.176613"
         rx="0.12855379"
         ry="0.1355617" /><ellipse
         style="fill:none;fill-opacity:1;stroke:#ffffff;stroke-width:0.0370155;stroke-dasharray:none;stroke-opacity:1"
         id="path11-7-62"
         cx="22.768259"
         cy="94.321327"
         rx="0.12855379"
         ry="0.1355617" /><ellipse
         style="fill:none;fill-opacity:1;stroke:#ffffff;stroke-width:0.0370155;stroke-dasharray:none;stroke-opacity:1"
         id="path11-7-21"
         cx="23.298189"
         cy="94.435928"
         rx="0.12855379"
         ry="0.1355617" /><ellipse
         style="fill:none;fill-opacity:1;stroke:#ffffff;stroke-width:0.0370155;stroke-dasharray:none;stroke-opacity:1"
         id="path11-7-8"
         cx="21.180555"
         cy="95.195724"
         rx="0.12855379"
         ry="0.1355617" /><path
         style="fill:#d7d7d7;fill-opacity:1;stroke:none;stroke-width:0.0669533;stroke-dasharray:none;stroke-opacity:1"
         d="m 26.364976,95.424811 c 0.05484,-0.28606 0.0056,-0.526303 -0.335449,-0.74767 -0.567416,-0.331208 -1.438204,-0.430784 -1.616257,-0.31354 -0.300409,0.182228 -0.412321,1.04781 2.4e-5,1.125525 z"
         id="path11"
         sodipodi:nodetypes="ccccc" /><path
         sodipodi:type="star"
         style="fill:#000000;fill-opacity:1;stroke:none;stroke-width:0.0669533;stroke-dasharray:none;stroke-opacity:1"
         id="path12"
         inkscape:flatsided="false"
         sodipodi:sides="5"
         sodipodi:cx="27.555065"
         sodipodi:cy="167.82738"
         sodipodi:r1="1.8922384"
         sodipodi:r2="0.94611907"
         sodipodi:arg1="0.78539816"
         sodipodi:arg2="1.4137167"
         inkscape:rounded="0"
         inkscape:randomized="0"
         d="m 28.89308,169.16539 -1.190009,-0.40354 -1.007064,0.75152 0.01606,-1.25646 -1.025944,-0.72554 1.199935,-0.373 0.372996,-1.19993 0.72554,1.02594 1.256468,-0.0161 -0.751526,1.00706 z"
         transform="matrix(0.23805338,0.2633472,-0.24973336,0.25103051,54.055523,43.843703)"
         inkscape:transform-center-x="0.0037032833"
         inkscape:transform-center-y="0.044272914" /><path
         style="fill:none;fill-opacity:1;stroke:#d7d7d7;stroke-width:0.02678139;stroke-dasharray:0.08034416,0.08034416;stroke-opacity:1;stroke-dashoffset:0"
         d="m 19.473013,91.204096 c 0.469513,2.994373 2.857856,3.840101 4.841147,3.280098"
         id="path13"
         sodipodi:nodetypes="cc" /><path
         style="fill:none;fill-opacity:1;stroke:#d7d7d7;stroke-width:0.0267814;stroke-dasharray:0.0803442, 0.0803442;stroke-dashoffset:0;stroke-opacity:1"
         d="m 19.378721,91.218849 c 0.469513,2.994373 2.911223,3.944614 4.894514,3.384611"
         id="path13-3"
         sodipodi:nodetypes="cc" /><path
         style="fill:none;fill-opacity:1;stroke:#d7d7d7;stroke-width:0.0267814;stroke-dasharray:0.0803443, 0.0803443;stroke-dashoffset:0;stroke-opacity:1"
         d="m 17.448135,91.155725 c 0.331814,-0.20859 2.270682,0.332751 3.086277,0.184754"
         id="path14"
         sodipodi:nodetypes="cc" /><path
         style="fill:none;fill-opacity:1;stroke:#d7d7d7;stroke-width:0.0267814;stroke-dasharray:0.0803443, 0.0803443;stroke-dashoffset:0;stroke-opacity:1"
         d="m 17.443216,91.25399 c 0.331814,-0.20859 2.270682,0.332751 3.086277,0.184754"
         id="path14-2"
         sodipodi:nodetypes="cc" /><path
         style="fill:none;fill-opacity:1;stroke:#d7d7d7;stroke-width:0.160688;stroke-linecap:round;stroke-dasharray:none;stroke-dashoffset:0;stroke-opacity:1"
         d="m 20.37644,92.182902 c 0.09506,-0.07335 0.143464,-0.07642 0.228716,-0.09045"
         id="path15"
         sodipodi:nodetypes="cc" /><path
         style="fill:none;fill-opacity:1;stroke:#d7d7d7;stroke-width:0.160688;stroke-linecap:round;stroke-dasharray:none;stroke-dashoffset:0;stroke-opacity:1"
         d="m 20.589549,92.788249 c 0.09506,-0.07335 0.143464,-0.07642 0.228716,-0.09045"
         id="path15-4"
         sodipodi:nodetypes="cc" /><path
         style="fill:none;fill-opacity:1;stroke:#d7d7d7;stroke-width:0.160688;stroke-linecap:round;stroke-dasharray:none;stroke-dashoffset:0;stroke-opacity:1"
         d="m 20.892634,93.270695 c 0.09506,-0.07335 0.143464,-0.07642 0.228716,-0.09045"
         id="path15-2"
         sodipodi:nodetypes="cc" /><path
         style="fill:none;fill-opacity:1;stroke:#d7d7d7;stroke-width:0.160688;stroke-linecap:round;stroke-dasharray:none;stroke-dashoffset:0;stroke-opacity:1"
         d="m 21.295717,93.635746 c 0.07231,-0.09806 0.11805,-0.115024 0.196372,-0.1532"
         id="path15-23"
         sodipodi:nodetypes="cc" /><path
         style="fill:none;fill-opacity:1;stroke:#d7d7d7;stroke-width:0.160688;stroke-linecap:round;stroke-dasharray:none;stroke-dashoffset:0;stroke-opacity:1"
         d="m 21.724019,93.920526 c 0.03502,-0.118596 0.07219,-0.151432 0.132796,-0.216196"
         id="path15-0"
         sodipodi:nodetypes="cc" /><path
         style="fill:none;fill-opacity:1;stroke:#d7d7d7;stroke-width:0.160688;stroke-linecap:round;stroke-dasharray:none;stroke-dashoffset:0;stroke-opacity:1"
         d="m 22.240642,94.173654 c 0.02064,-0.12229 0.05362,-0.159782 0.106044,-0.232048"
         id="path15-26"
         sodipodi:nodetypes="cc" /><path
         style="fill:none;fill-opacity:1;stroke:#d7d7d7;stroke-width:0.144727;stroke-linecap:round;stroke-dasharray:none;stroke-dashoffset:0;stroke-opacity:1"
         d="m 22.760338,94.338829 c 0.01927,-0.106268 0.05006,-0.138847 0.09899,-0.201645"
         id="path15-26-8"
         sodipodi:nodetypes="cc" /><path
         style="fill:none;fill-opacity:1;stroke:#d7d7d7;stroke-width:0.15047;stroke-linecap:round;stroke-dasharray:none;stroke-dashoffset:0;stroke-opacity:1"
         d="m 23.29147,94.457654 c 0.0085,-0.110515 0.03705,-0.146986 0.08135,-0.216201"
         id="path15-26-3"
         sodipodi:nodetypes="cc" /><ellipse
         style="fill:none;fill-opacity:1;stroke:#000000;stroke-width:0.0294507;stroke-linecap:butt;stroke-dasharray:0.0589014, 0.0294507;stroke-dashoffset:0;stroke-opacity:1"
         id="path16"
         cx="18.680134"
         cy="93.254158"
         rx="0.82699674"
         ry="0.87904334" /><ellipse
         style="fill:none;fill-opacity:1;stroke:#000000;stroke-width:0.0276501;stroke-linecap:butt;stroke-dasharray:0.0553003, 0.0276501;stroke-dashoffset:0;stroke-opacity:1"
         id="path16-9"
         cx="18.686222"
         cy="93.253906"
         rx="0.77643603"
         ry="0.82530057" /><path
         style="fill:none;fill-opacity:1;stroke:#000000;stroke-width:0.13390693;stroke-linecap:butt;stroke-dasharray:none;stroke-dashoffset:0;stroke-opacity:1"
         d="m 17.170611,96.148362 c 2.072301,0.151203 3.915649,0.0512 6.076211,0.08844"
         id="path23"
         sodipodi:nodetypes="cc" /><path
         id="rect23"
         style="fill:#e8e8e8;fill-opacity:1;stroke-width:0.11913"
         d="m 23.457743,95.765598 2.868194,-0.06277 c 0.213754,-0.08425 0.0296,0.958234 -0.120555,0.946428 -0.830468,0.06672 -1.76962,0.08919 -2.757686,0.09175 -0.340646,-0.08567 -0.3675,-0.90096 0.01004,-0.9754 z"
         sodipodi:nodetypes="cccccc" /><path
         style="fill:#e8e8e8;fill-opacity:1;stroke:none;stroke-width:0.133907;stroke-linecap:butt;stroke-dasharray:none;stroke-dashoffset:0;stroke-opacity:1"
         d="m 16.890179,95.484667 c 0.02605,-0.0028 0.340685,0.01601 0.340685,0.05312 -0.05473,0.338976 -0.0022,0.917266 -0.03433,1.088562 -0.104827,0.0025 -0.162469,-0.02987 -0.211883,-0.04608 -0.139781,-0.04586 -0.219691,-0.802288 -0.09448,-1.095595 z"
         id="path24"
         sodipodi:nodetypes="cccscc" /><path
         style="fill:none;fill-opacity:1;stroke:#e8e8e8;stroke-width:0.0669535;stroke-linecap:butt;stroke-dasharray:none;stroke-dashoffset:0;stroke-opacity:1"
         d="m 17.158362,95.874704 c 2.001916,0.08711 4.154776,0.09885 6.156691,0.08112"
         id="path25"
         sodipodi:nodetypes="cc" /></g><g
       id="g10"
       transform="matrix(0.9337291,-0.01087199,0.01087199,0.9337291,18.48642,22.233)"
       inkscape:label="cabeca"><path
         style="fill:#ffad59;fill-opacity:1;stroke:none;stroke-width:0.264583;stroke-opacity:1"
         d="m 31.462208,21.820135 c 1.135402,0.613113 2.173978,0.889275 2.66275,0.574494 0.204855,-0.191951 0.09608,-0.861412 0.399579,-0.849516 0.131748,-0.119743 0.26635,-0.343695 -0.0262,-0.461845 0.274021,0.227575 0.399489,-0.254243 0.31478,-0.327827 0.02326,-0.29879 0.06497,-0.615123 0.153499,-0.626163 0.104639,-0.01305 0.661343,-0.211305 0.490996,-0.538072 -0.260357,-0.499446 -0.450201,-0.661751 -0.326001,-1.322093 0.246462,-1.210578 0.896461,-2.46852 0.0998,-3.859031 -1.181086,-1.827611 -5.423948,-2.350268 -6.862518,0.08242 -0.806456,1.348081 -1.165662,3.808932 0.194878,5.135947 l 1.046011,0.790953 c 0.423436,0.320186 0.924178,0.899482 1.852426,1.400733 z"
         id="path5"
         sodipodi:nodetypes="sccccssccccss"
         inkscape:label="cabeca" /><path
         style="fill:#050505;fill-opacity:1;stroke:none;stroke-width:0.23934;stroke-opacity:1"
         d="m 35.135868,18.052276 c 0.179007,-0.531414 -0.360949,-0.735444 -1.060901,-0.736796 -0.218482,0.539559 -1.243887,0.640919 -1.276617,1.377343 0,0 -0.5145,0.234219 -0.914883,-0.809308 -0.292097,0.289305 -0.05231,0.938856 -0.614183,1.217791 -0.544738,-1.250298 -1.261058,1.074768 -1.691887,1.403118 -1.190109,-0.141883 -1.252128,-1.610073 -1.446536,-0.977183 -0.733249,-0.326745 -0.19507,-2.559047 -0.725991,-2.141167 -0.479019,-0.874126 0.08418,-2.436818 0.618552,-2.455407 -0.02661,-0.697816 1.266122,-1.748089 1.600102,-1.691767 -0.437125,0.17805 1.940289,-0.890594 3.321666,-0.276089 -0.251368,0.01216 0.03817,-0.0055 0.247024,-0.04328 0.598481,-0.108864 2.639664,0.485753 2.532457,1.115269 -0.548277,-0.233521 0.365458,0.686671 0.523214,1.079058 0.141854,0.294232 0.39069,1.113908 -0.119958,1.428056 0.09614,-0.348493 0.111243,0.578855 -0.07169,0.707829 -0.236457,-0.289568 0.06372,0.62387 -0.920367,0.802515 z"
         id="path6"
         sodipodi:nodetypes="cccccccccccscccccc"
         inkscape:label="cabelo" /><path
         style="fill:#050505;fill-opacity:1;stroke:none;stroke-width:0.0289304;stroke-opacity:1"
         d="m 33.189534,22.08503 c -0.06806,0.03218 0.06631,0.11651 0.160375,0.151941 0.07405,-0.03081 0.164502,0.04368 0.209425,-0.04873 0.08201,0.02769 0.186073,0.113237 0.262582,0.02441 0.04079,0.04732 0.192129,0.05159 0.268365,-0.04621 0.06929,0.05293 0.123626,-0.05147 0.131781,-0.118452 0.08263,0.113856 0.04661,0.275579 0.125133,0.236311 0.07164,0.06235 -0.185494,0.208295 -0.07948,0.202684 -0.0079,0.09196 -0.212952,0.184724 -0.2864,0.159195 -0.05416,0.05545 -0.315011,0.07166 -0.355291,0.05044 0.07355,0.0083 -0.334776,-0.02886 -0.469809,-0.146231 0.03484,0.01174 -0.0056,-0.0015 -0.03682,-0.0091 -0.08954,-0.02176 -0.311793,-0.192896 -0.245281,-0.236304 0.05445,0.04578 0.0045,-0.04969 0.01568,-0.08808 0.0053,-0.02998 -5.01e-4,-0.08822 0.0942,-0.08681 -0.04178,0.02218 0.04576,-0.04638 0.08105,-0.04715 0.0022,-0.03446 0.05335,0.0045 0.124476,0.0021 z"
         id="path6-2"
         sodipodi:nodetypes="cccccccccccsccccc"
         inkscape:label="cavanhaque" /><path
         style="fill:#e59b4f;fill-opacity:1;stroke:none;stroke-width:0.0214181;stroke-linecap:butt;stroke-dasharray:none;stroke-dashoffset:0;stroke-opacity:1"
         d="m 34.594559,21.134158 c -0.423936,-0.04073 -0.754585,0.0012 -0.989714,0.0059 -0.0687,-0.01561 0.537266,-0.295718 1.207899,-0.384169 0.07106,0.04638 0.0078,0.447063 -0.218185,0.378314 z"
         id="path20"
         sodipodi:nodetypes="ccccc" /></g><g
       id="g2"
       inkscape:label="braco_d"
       transform="matrix(0.9337924,0,0,0.9337924,17.498943,26.374149)"><g
         id="g11"
         inkscape:label="braco_d"
         transform="matrix(0.76002704,-0.13357469,0.13357469,0.76002704,3.8365287,-5.2186418)"><path
           style="fill:#ffad59;fill-opacity:1;stroke:none;stroke-width:0.311381;stroke-opacity:1"
           d="m 12.839923,17.842155 c -3.0899716,3.45221 -2.190325,8.576795 -3.0967276,12.898074 -0.332399,1.584712 2.9236726,1.697154 3.0753366,0.428684 0.609147,-5.094702 5.036104,-8.193335 3.885483,-12.636658 -0.862607,-1.09699 -3.003851,-1.454503 -3.864093,-0.690105 z"
           id="path7"
           sodipodi:nodetypes="cssccc" /><path
           style="fill:#0099a6;fill-opacity:1;stroke:none;stroke-width:0.359771;stroke-opacity:1"
           d="m 9.6657124,28.485182 c -0.411013,0.543439 4.5431166,1.136756 4.4391466,0.05667 1.033044,-2.302616 3.673463,-8.167822 3.133906,-9.483797 -0.470253,-1.662469 -3.360751,-2.391449 -4.529521,-1.397161 -3.2478476,3.453352 -2.9150956,9.64665 -3.0435316,10.824288 z"
           id="path7-9"
           sodipodi:nodetypes="cccccc" /></g><g
         id="g12"
         inkscape:label="antibraco_d"
         transform="matrix(0.77167565,0,0,0.77167565,6.9721448,5.0263819)"
         style="fill:#ffad59;fill-opacity:1"><path
           style="fill:#ffad59;fill-opacity:1;stroke:none;stroke-width:0.24189;stroke-opacity:1"
           d="m 10.6568,33.421741 c 0.05684,1.323868 2.247416,0.78877 2.190854,-0.260294 -0.253935,-4.208431 1.085105,-7.666211 1.134888,-11.401587 -0.212202,-0.969553 -3.056277,-0.898331 -3.206744,0.118928 -1.1322389,3.269716 0.03382,7.986017 -0.118998,11.542953 z"
           id="path7-3"
           sodipodi:nodetypes="ccccc" /><path
           style="fill:#ffad59;fill-opacity:1;stroke:none;stroke-width:0.388221;stroke-opacity:1"
           d="m 10.186062,37.06852 c -0.4611,1.2385 -0.58148,1.446043 -0.30615,3.050912 0.252891,0.591489 0.161511,0.46216 0.620702,1.055448 0.187443,0.242176 0.441347,0.276118 0.601187,0.02521 0.182561,0.817771 0.776786,0.50268 0.737412,0.23193 -0.123241,0.414694 0.928214,0.294135 0.722017,-0.230413 0.181698,0.171941 0.551283,-0.09922 0.371247,-0.494637 -0.482735,-1.160874 -0.308371,-1.423272 0.08945,-1.991109 -0.07725,0.498664 -0.124195,0.398936 -0.227367,1.029754 0.121125,0.249593 0.356377,0.180041 0.450416,-0.03174 0.815099,-1.303928 0.34372,-2.567181 0.05147,-3.323293 -0.228395,-1.675754 -2.66526,-0.213848 -2.66526,-0.213848 z"
           id="path8"
           sodipodi:nodetypes="ccscccccccccc" /></g></g></g></svg>
