<?xml version="1.0" encoding="UTF-8" standalone="no"?>
<!-- Created with Inkscape (http://www.inkscape.org/) -->

<svg
   width="45mm"
   height="60mm"
   viewBox="0 0 45 60"
   version="1.1"
   id="svg1"
   xml:space="preserve"
   inkscape:version="1.3 (0e150ed6c4, 2023-07-21)"
   sodipodi:docname="player_color.svg"
   xmlns:inkscape="http://www.inkscape.org/namespaces/inkscape"
   xmlns:sodipodi="http://sodipodi.sourceforge.net/DTD/sodipodi-0.dtd"
   xmlns="http://www.w3.org/2000/svg"
   xmlns:svg="http://www.w3.org/2000/svg"><sodipodi:namedview
     id="namedview1"
     pagecolor="#ffffff"
     bordercolor="#000000"
     borderopacity="0.25"
     inkscape:showpageshadow="2"
     inkscape:pageopacity="0.0"
     inkscape:pagecheckerboard="false"
     inkscape:deskcolor="#d1d1d1"
     inkscape:document-units="mm"
     inkscape:zoom="8"
     inkscape:cx="123.625"
     inkscape:cy="68.1875"
     inkscape:window-width="1920"
     inkscape:window-height="1017"
     inkscape:window-x="-8"
     inkscape:window-y="-8"
     inkscape:window-maximized="1"
     inkscape:current-layer="g10"
     inkscape:clip-to-page="false" /><defs
     id="defs1" /><g
     inkscape:label="Camada 1"
     inkscape:groupmode="layer"
     id="layer1"
     transform="translate(-10.584429,-19.935975)"><g
       id="g16"
       inkscape:label="corpo"
       transform="matrix(0.72000956,-0.02878814,0.02878814,0.72000956,23.663462,37.295135)"
       style="fill:#000000"><path
         style="fill:#000000;fill-opacity:1;stroke-width:0.264583"
         d="m 33.113995,17.997778 c -0.409396,0.349648 0.03583,0.875579 -0.408917,1.136767 -0.334315,0.196332 -0.3367,0.887443 -0.210015,1.301323 1.05313,1.63997 2.442004,4.147925 2.48141,5.689153 -0.59357,6.023625 -1.375814,16.198968 -1.375814,16.198968 0.0098,0.829298 -7.018679,-1.178917 -7.056659,-2.353025 0,0 -0.725916,-13.140753 0.416364,-16.779169 0.64771,-2.063099 1.159063,-2.8318 2.328792,-3.876773 0.554742,-0.691516 0.956743,-1.837541 0.877259,-3.222193 -0.168722,-0.625013 3.282364,1.560885 2.94758,1.904949 z"
         id="path1"
         sodipodi:nodetypes="csccccsccc" /><path
         style="fill:#000000;fill-opacity:1;stroke-width:0.272093"
         d="m 32.394613,21.690634 c 0.05639,-0.177152 0.185987,-0.811313 0.06746,-1.215708 0.587576,0.816863 2.969263,2.606419 2.714181,5.765458 -0.242381,6.200799 -1.053453,16.568375 -1.428073,16.50476 -1.505501,-0.992689 -8.26619,2.451693 -8.488676,0.414206 0.376894,-3.761652 0.103904,-16.716789 1.011501,-20.336458 0.702447,-2.801494 3.010539,-2.86213 3.376079,-3.997612 0.455887,1.201382 1.373873,2.582874 2.747531,2.865354 z"
         id="path1-0"
         sodipodi:nodetypes="cccccsccc" /></g><g
       id="g17"
       inkscape:label="perna_d"
       transform="matrix(0.76687224,0,0,0.72722849,3.9239419,-3.1142971)"
       style="fill:#000000"><path
         style="fill:#000000;fill-opacity:1;stroke:none;stroke-width:0.234965;stroke-opacity:1"
         d="m 16.420196,48.867332 c -1.356701,3.00418 1.221869,10.301975 0.871199,13.901078 0.0415,1.778709 5.43932,2.345874 5.464282,0.629049 0.79219,-3.428639 1.069668,-8.88968 1.027702,-13.451449 0.338937,-3.330907 -6.512574,-4.164747 -7.363179,-1.078675 z"
         id="path2"
         sodipodi:nodetypes="cccccc" /><path
         style="fill:#000000;fill-opacity:1;stroke:none;stroke-width:0.269826;stroke-opacity:1"
         d="m 17.131688,69.970603 c -0.0651,-2.44201 5.254268,-1.4068 5.501973,0.599351 0.495861,3.827512 -0.127449,9.656139 -1.602432,15.088415 0.0056,0.944015 -3.021147,1.665237 -3.035488,0.125342 -2.019523,-8.107179 -0.35602,-10.895139 -0.864048,-15.813108 z"
         id="path3"
         sodipodi:nodetypes="ccccc" /><path
         style="fill:#000000;fill-opacity:1;stroke:none;stroke-width:0.233938;stroke-opacity:1"
         d="m 20.519531,91.148935 c 0.174525,1.824654 0.386191,2.056717 1.366323,2.581657 0.6753,0.381316 1.637939,0.606261 2.515765,0.621162 0.63889,0.01085 1.150099,0.0758 1.553122,0.294756 0.661589,0.326526 0.438612,2.067798 0.147407,1.974595 -0.403464,0.07092 -9.011754,0.290255 -9.091967,-0.09803 -0.468661,-2.312824 0.54677,-3.60505 0.425764,-5.407117 8.47e-4,-0.337941 2.757219,0.315347 3.083586,0.03297 z"
         id="path4"
         sodipodi:nodetypes="ccsccccc" /><path
         id="path4-9"
         style="fill:#000000;fill-opacity:1;stroke:none;stroke-width:0.23447;stroke-opacity:1"
         d="m 16.882092,95.480384 c 0.0093,0.327572 0.04635,0.675291 0.122246,1.049791 0.08039,0.38914 8.707981,0.168642 9.11236,0.09762 0.175065,0.05602 0.323559,-0.548994 0.272859,-1.113183 -1.262896,0.07455 -8.300205,0.224398 -9.507465,-0.03419 z" /><ellipse
         style="fill:#000000;fill-opacity:1;stroke-width:0.354295"
         id="path9"
         cx="18.676752"
         cy="93.241554"
         rx="0.89961457"
         ry="0.94865566" /><ellipse
         style="fill:#000000;fill-opacity:1;stroke:#000000;stroke-width:0.0370155;stroke-dasharray:none;stroke-opacity:1"
         id="path11-7-5"
         cx="20.326683"
         cy="92.205055"
         rx="0.12855379"
         ry="0.1355617" /><ellipse
         style="fill:#000000;fill-opacity:1;stroke:#000000;stroke-width:0.0370155;stroke-dasharray:none;stroke-opacity:1"
         id="path11-7-0"
         cx="20.562876"
         cy="92.791626"
         rx="0.12855379"
         ry="0.1355617" /><ellipse
         style="fill:#000000;fill-opacity:1;stroke:#000000;stroke-width:0.0370155;stroke-dasharray:none;stroke-opacity:1"
         id="path11-7-3"
         cx="20.890701"
         cy="93.286125"
         rx="0.12855379"
         ry="0.1355617" /><ellipse
         style="fill:#000000;fill-opacity:1;stroke:#000000;stroke-width:0.0370155;stroke-dasharray:none;stroke-opacity:1"
         id="path11-7-6"
         cx="21.258587"
         cy="93.641914"
         rx="0.12855379"
         ry="0.1355617" /><ellipse
         style="fill:#000000;fill-opacity:1;stroke:#000000;stroke-width:0.0370155;stroke-dasharray:none;stroke-opacity:1"
         id="path11-7-60"
         cx="21.710339"
         cy="93.925346"
         rx="0.12855379"
         ry="0.1355617" /><ellipse
         style="fill:#000000;fill-opacity:1;stroke:#000000;stroke-width:0.0370155;stroke-dasharray:none;stroke-opacity:1"
         id="path11-7-2"
         cx="22.232647"
         cy="94.176613"
         rx="0.12855379"
         ry="0.1355617" /><ellipse
         style="fill:#000000;fill-opacity:1;stroke:#000000;stroke-width:0.0370155;stroke-dasharray:none;stroke-opacity:1"
         id="path11-7-62"
         cx="22.768259"
         cy="94.321327"
         rx="0.12855379"
         ry="0.1355617" /><ellipse
         style="fill:#000000;fill-opacity:1;stroke:#000000;stroke-width:0.0370155;stroke-dasharray:none;stroke-opacity:1"
         id="path11-7-21"
         cx="23.298189"
         cy="94.435928"
         rx="0.12855379"
         ry="0.1355617" /><path
         style="fill:#000000;fill-opacity:1;stroke:none;stroke-width:0.0669533;stroke-dasharray:none;stroke-opacity:1"
         d="m 26.364976,95.424811 c 0.05484,-0.28606 0.0056,-0.526303 -0.335449,-0.74767 -0.567416,-0.331208 -1.438204,-0.430784 -1.616257,-0.31354 -0.300409,0.182228 -0.412321,1.04781 2.4e-5,1.125525 z"
         id="path11"
         sodipodi:nodetypes="ccccc" /><path
         sodipodi:type="star"
         style="fill:#000000;fill-opacity:1;stroke:none;stroke-width:0.0669533;stroke-dasharray:none;stroke-opacity:1"
         id="path12"
         inkscape:flatsided="false"
         sodipodi:sides="5"
         sodipodi:cx="27.555065"
         sodipodi:cy="167.82738"
         sodipodi:r1="1.8922384"
         sodipodi:r2="0.94611907"
         sodipodi:arg1="0.78539816"
         sodipodi:arg2="1.4137167"
         inkscape:rounded="0"
         inkscape:randomized="0"
         d="m 28.89308,169.16539 -1.190009,-0.40354 -1.007064,0.75152 0.01606,-1.25646 -1.025944,-0.72554 1.199935,-0.373 0.372996,-1.19993 0.72554,1.02594 1.256468,-0.0161 -0.751526,1.00706 z"
         transform="matrix(0.23805338,0.2633472,-0.24973336,0.25103051,54.055523,43.843703)"
         inkscape:transform-center-x="0.0037032833"
         inkscape:transform-center-y="0.044272914" /><path
         style="fill:#000000;fill-opacity:1;stroke:#000000;stroke-width:0.160688;stroke-linecap:round;stroke-dasharray:none;stroke-dashoffset:0;stroke-opacity:1"
         d="m 20.37644,92.182902 c 0.09506,-0.07335 0.143464,-0.07642 0.228716,-0.09045"
         id="path15"
         sodipodi:nodetypes="cc" /><path
         style="fill:#000000;fill-opacity:1;stroke:#000000;stroke-width:0.160688;stroke-linecap:round;stroke-dasharray:none;stroke-dashoffset:0;stroke-opacity:1"
         d="m 20.589549,92.788249 c 0.09506,-0.07335 0.143464,-0.07642 0.228716,-0.09045"
         id="path15-4"
         sodipodi:nodetypes="cc" /><path
         style="fill:#000000;fill-opacity:1;stroke:#000000;stroke-width:0.160688;stroke-linecap:round;stroke-dasharray:none;stroke-dashoffset:0;stroke-opacity:1"
         d="m 20.892634,93.270695 c 0.09506,-0.07335 0.143464,-0.07642 0.228716,-0.09045"
         id="path15-2"
         sodipodi:nodetypes="cc" /><path
         style="fill:#000000;fill-opacity:1;stroke:#000000;stroke-width:0.160688;stroke-linecap:round;stroke-dasharray:none;stroke-dashoffset:0;stroke-opacity:1"
         d="m 21.295717,93.635746 c 0.07231,-0.09806 0.11805,-0.115024 0.196372,-0.1532"
         id="path15-23"
         sodipodi:nodetypes="cc" /><path
         style="fill:#000000;fill-opacity:1;stroke:#000000;stroke-width:0.160688;stroke-linecap:round;stroke-dasharray:none;stroke-dashoffset:0;stroke-opacity:1"
         d="m 21.724019,93.920526 c 0.03502,-0.118596 0.07219,-0.151432 0.132796,-0.216196"
         id="path15-0"
         sodipodi:nodetypes="cc" /><path
         style="fill:#000000;fill-opacity:1;stroke:#000000;stroke-width:0.160688;stroke-linecap:round;stroke-dasharray:none;stroke-dashoffset:0;stroke-opacity:1"
         d="m 22.240642,94.173654 c 0.02064,-0.12229 0.05362,-0.159782 0.106044,-0.232048"
         id="path15-26"
         sodipodi:nodetypes="cc" /><path
         style="fill:#000000;fill-opacity:1;stroke:#000000;stroke-width:0.144727;stroke-linecap:round;stroke-dasharray:none;stroke-dashoffset:0;stroke-opacity:1"
         d="m 22.760338,94.338829 c 0.01927,-0.106268 0.05006,-0.138847 0.09899,-0.201645"
         id="path15-26-8"
         sodipodi:nodetypes="cc" /><path
         style="fill:#000000;fill-opacity:1;stroke:#000000;stroke-width:0.15047;stroke-linecap:round;stroke-dasharray:none;stroke-dashoffset:0;stroke-opacity:1"
         d="m 23.29147,94.457654 c 0.0085,-0.110515 0.03705,-0.146986 0.08135,-0.216201"
         id="path15-26-3"
         sodipodi:nodetypes="cc" /><ellipse
         style="fill:#000000;fill-opacity:1;stroke:#000000;stroke-width:0.0294507;stroke-linecap:butt;stroke-dasharray:0.0589014, 0.0294507;stroke-dashoffset:0;stroke-opacity:1"
         id="path16"
         cx="18.680134"
         cy="93.254158"
         rx="0.82699674"
         ry="0.87904334" /><ellipse
         style="fill:#000000;fill-opacity:1;stroke:#000000;stroke-width:0.0276501;stroke-linecap:butt;stroke-dasharray:0.0553003, 0.0276501;stroke-dashoffset:0;stroke-opacity:1"
         id="path16-9"
         cx="18.686222"
         cy="93.253906"
         rx="0.77643603"
         ry="0.82530057" /><path
         style="fill:#000000;fill-opacity:1;stroke:#000000;stroke-width:0.13390693;stroke-linecap:butt;stroke-dasharray:none;stroke-dashoffset:0;stroke-opacity:1"
         d="m 17.170611,96.148362 c 2.072301,0.151203 3.915649,0.0512 6.076211,0.08844"
         id="path23"
         sodipodi:nodetypes="cc" /><path
         id="rect23"
         style="fill:#000000;fill-opacity:1;stroke-width:0.11913"
         d="m 23.457743,95.765598 2.868194,-0.06277 c 0.213754,-0.08425 0.0296,0.958234 -0.120555,0.946428 -0.830468,0.06672 -1.76962,0.08919 -2.757686,0.09175 -0.340646,-0.08567 -0.3675,-0.90096 0.01004,-0.9754 z"
         sodipodi:nodetypes="cccccc" /><path
         style="fill:#000000;fill-opacity:1;stroke:none;stroke-width:0.133907;stroke-linecap:butt;stroke-dasharray:none;stroke-dashoffset:0;stroke-opacity:1"
         d="m 16.890179,95.484667 c 0.02605,-0.0028 0.340685,0.01601 0.340685,0.05312 -0.05473,0.338976 -0.0022,0.917266 -0.03433,1.088562 -0.104827,0.0025 -0.162469,-0.02987 -0.211883,-0.04608 -0.139781,-0.04586 -0.219691,-0.802288 -0.09448,-1.095595 z"
         id="path24"
         sodipodi:nodetypes="cccscc" /></g><g
       id="g10"
       transform="matrix(0.9337291,-0.01087199,0.01087199,0.9337291,18.48642,22.233)"
       inkscape:label="cabeca"><path
         style="fill:#000000;fill-opacity:1;stroke:none;stroke-width:0.264583;stroke-opacity:1"
         d="m 31.462208,21.820135 c 1.135402,0.613113 2.173978,0.889275 2.66275,0.574494 0.204855,-0.191951 0.09608,-0.861412 0.399579,-0.849516 0.131748,-0.119743 0.26635,-0.343695 -0.0262,-0.461845 0.274021,0.227575 0.399489,-0.254243 0.31478,-0.327827 0.02326,-0.29879 0.06497,-0.615123 0.153499,-0.626163 0.104639,-0.01305 0.661343,-0.211305 0.490996,-0.538072 -0.260357,-0.499446 -0.450201,-0.661751 -0.326001,-1.322093 0.300141,-0.412832 0.896461,-2.46852 0.0998,-3.859031 -1.181086,-1.827611 -5.423948,-2.350268 -6.862518,0.08242 -0.806456,1.348081 -1.165662,3.808932 0.194878,5.135947 l 1.046011,0.790953 c 0.423436,0.320186 0.924178,0.899482 1.852426,1.400733 z"
         id="path5"
         sodipodi:nodetypes="sccccssccccss"
         inkscape:label="cabeca" /><path
         style="fill:#000000;fill-opacity:1;stroke:none;stroke-width:0.258891;stroke-opacity:1"
         d="m 35.29561,17.169543 c 0.08147,0.587234 -0.926909,0.946771 -0.539641,1.681058 0,0 -0.401059,0.361161 -1.41442,-0.566207 -0.138254,0.359162 0.482718,0.938798 0.05797,1.356048 -1.281766,-1.094689 -0.696564,1.378828 -0.95675,1.811612 -1.318811,0.16145 -2.22325,-1.270248 -2.063351,-0.597101 -0.949464,-0.136466 -1.666869,-2.473411 -1.979932,-1.927029 -0.998229,-0.740466 -1.306535,-2.42362 -0.761459,-2.577242 -0.426883,-0.681195 0.316626,-2.043898 0.696166,-2.072934 -0.352714,0.286217 0.621905,-1.60496 3.402098,-1.587824 -0.737316,0.67102 -0.215369,0.119868 -0.0199,0.0296 0.560099,-0.258861 3.142949,0.262757 3.391603,0.910507 -0.70377,-0.0914 0.413419,0.26716 0.801965,0.614044 0.315846,0.254143 0.632521,1.883551 0.281196,2.322546 -0.212664,-0.319124 0.0935,-0.300665 -0.169864,-0.416933 -0.412784,-0.246046 1.130943,0.401799 -0.40287,1.139074 0.341513,-1.423804 -0.522399,-0.433871 -0.32282,-0.119232 z"
         id="path6"
         sodipodi:nodetypes="ccccccccccsccccccc"
         inkscape:label="cabelo" /></g><g
       id="g2"
       inkscape:label="braco_d"
       transform="matrix(0.9337924,0,0,0.9337924,17.498943,26.374149)"
       style="fill:#000000"><g
         id="g11"
         inkscape:label="braco_d"
         transform="matrix(0.76002704,-0.13357469,0.13357469,0.76002704,3.8365287,-5.2186418)"
         style="fill:#000000"><path
           style="fill:#000000;fill-opacity:1;stroke:none;stroke-width:0.311381;stroke-opacity:1"
           d="m 12.839923,17.842155 c -3.0899716,3.45221 -2.190325,8.576795 -3.0967276,12.898074 -0.332399,1.584712 2.9236726,1.697154 3.0753366,0.428684 0.609147,-5.094702 5.036104,-8.193335 3.885483,-12.636658 -0.862607,-1.09699 -3.003851,-1.454503 -3.864093,-0.690105 z"
           id="path7"
           sodipodi:nodetypes="cssccc" /><path
           style="fill:#000000;fill-opacity:1;stroke:none;stroke-width:0.359771;stroke-opacity:1"
           d="m 9.6657124,28.485182 c -0.411013,0.543439 4.5431166,1.136756 4.4391466,0.05667 1.033044,-2.302616 3.673463,-8.167822 3.133906,-9.483797 -0.470253,-1.662469 -3.360751,-2.391449 -4.529521,-1.397161 -3.2478476,3.453352 -2.9150956,9.64665 -3.0435316,10.824288 z"
           id="path7-9"
           sodipodi:nodetypes="cccccc" /></g><g
         id="g12"
         inkscape:label="antibraco_d"
         transform="matrix(0.77167565,0,0,0.77167565,6.9721448,5.0263819)"
         style="fill:#000000;fill-opacity:1"><path
           style="fill:#000000;fill-opacity:1;stroke:none;stroke-width:0.24189;stroke-opacity:1"
           d="m 10.6568,33.421741 c 0.05684,1.323868 2.247416,0.78877 2.190854,-0.260294 -0.253935,-4.208431 1.085105,-7.666211 1.134888,-11.401587 -0.212202,-0.969553 -3.056277,-0.898331 -3.206744,0.118928 -1.1322389,3.269716 0.03382,7.986017 -0.118998,11.542953 z"
           id="path7-3"
           sodipodi:nodetypes="ccccc" /><path
           style="fill:#000000;fill-opacity:1;stroke:none;stroke-width:0.388221;stroke-opacity:1"
           d="m 10.186062,37.06852 c -0.4611,1.2385 -0.58148,1.446043 -0.30615,3.050912 0.252891,0.591489 0.161511,0.46216 0.620702,1.055448 0.187443,0.242176 0.441347,0.276118 0.601187,0.02521 0.182561,0.817771 0.776786,0.50268 0.737412,0.23193 -0.123241,0.414694 0.928214,0.294135 0.722017,-0.230413 0.181698,0.171941 0.551283,-0.09922 0.371247,-0.494637 -0.482735,-1.160874 -0.308371,-1.423272 0.08945,-1.991109 -0.07725,0.498664 -0.124195,0.398936 -0.227367,1.029754 0.121125,0.249593 0.356377,0.180041 0.450416,-0.03174 0.815099,-1.303928 0.34372,-2.567181 0.05147,-3.323293 -0.228395,-1.675754 -2.66526,-0.213848 -2.66526,-0.213848 z"
           id="path8"
           sodipodi:nodetypes="ccscccccccccc" /></g></g></g></svg>
