<?xml version="1.0" encoding="UTF-8" standalone="no"?>
<!-- Created with Inkscape (http://www.inkscape.org/) -->

<svg
   width="6.8921862mm"
   height="7.2352414mm"
   viewBox="0 0 6.8921862 7.2352414"
   version="1.1"
   id="svg1"
   sodipodi:docname="logo-4fun.svg"
   inkscape:version="1.3 (0e150ed6c4, 2023-07-21)"
   xmlns:inkscape="http://www.inkscape.org/namespaces/inkscape"
   xmlns:sodipodi="http://sodipodi.sourceforge.net/DTD/sodipodi-0.dtd"
   xmlns="http://www.w3.org/2000/svg"
   xmlns:svg="http://www.w3.org/2000/svg">
  <sodipodi:namedview
     id="namedview1"
     pagecolor="#ffffff"
     bordercolor="#000000"
     borderopacity="0.25"
     inkscape:showpageshadow="2"
     inkscape:pageopacity="0.0"
     inkscape:pagecheckerboard="0"
     inkscape:deskcolor="#d1d1d1"
     inkscape:document-units="mm"
     inkscape:clip-to-page="false"
     inkscape:zoom="23.404489"
     inkscape:cx="12.134424"
     inkscape:cy="13.266686"
     inkscape:window-width="1920"
     inkscape:window-height="1017"
     inkscape:window-x="-8"
     inkscape:window-y="-8"
     inkscape:window-maximized="1"
     inkscape:current-layer="layer1" />
  <defs
     id="defs1" />
  <g
     inkscape:label="Camada 1"
     inkscape:groupmode="layer"
     id="layer1"
     transform="translate(-0.7525456,-0.8365981)">
    <rect
       style="fill:#ffffff;stroke-width:1.07547;stroke-linecap:round"
       id="rect1"
       width="6.7715826"
       height="7.0881171"
       x="0.80906969"
       y="0.8931222"
       ry="0" />
    <rect
       style="fill:none;fill-opacity:1;stroke:#000000;stroke-width:0.123034;stroke-dasharray:none;stroke-opacity:1"
       id="rect2"
       width="6.7691522"
       height="7.1122074"
       x="0.8140626"
       y="0.8981151" />
    <rect
       style="fill:#000000;fill-opacity:1;stroke:none;stroke-width:0.102557;stroke-dasharray:none;stroke-opacity:1"
       id="rect5"
       width="6.7998438"
       height="1.9726896"
       x="0.80264163"
       y="6.0593786" />
    <path
       style="font-size:4.93889px;font-family:'Century Gothic';-inkscape-font-specification:'Century Gothic';fill:#f30000;stroke-width:0.05"
       d="m 3.0654519,-6.5654048 h 0.072347 v 2.4718565 h 0.4292589 v 0.340031 H 3.137799 v 0.8247561 H 2.7832986 V -3.7535173 H 1.0879667 Z m -0.2821533,2.4718565 v -1.4782908 l -1.0442087,1.4782908 z"
       id="text1"
       aria-label="4"
       transform="rotate(90)" />
    <path
       style="font-size:3.175px;font-family:Sans;-inkscape-font-specification:Sans;stroke-width:0.05"
       d="M 2.7272404,3.8091748 H 1.5598698 v 0.651123 H 2.5629093 V 4.7331494 H 1.5598698 v 1.11156 H 1.2529118 V 3.5363232 h 1.4743286 z m 2.0882445,1.1084594 q 0,0.2511475 -0.055811,0.4387329 -0.05426,0.1860352 -0.179834,0.3100586 -0.1193725,0.1178223 -0.2790527,0.1720825 -0.1596802,0.05426 -0.3720703,0.05426 -0.217041,0 -0.3782715,-0.057361 Q 3.3892154,5.7780468 3.2791446,5.6664257 3.1535709,5.5393017 3.0977604,5.3594677 3.0435001,5.1796337 3.0435001,4.9176342 v -1.381311 h 0.306958 v 1.3968139 q 0,0.1875855 0.024805,0.296106 0.026355,0.1085205 0.086816,0.1968872 0.068213,0.100769 0.1844849,0.1519287 0.1178222,0.05116 0.2821533,0.05116 0.1658813,0 0.2821533,-0.049609 0.116272,-0.05116 0.1860352,-0.153479 0.060461,-0.088367 0.085266,-0.2015381 0.026355,-0.1147217 0.026355,-0.2837036 V 3.5363232 h 0.306958 z M 7.1626285,5.8447094 H 6.7828067 L 5.6882999,3.7797192 V 5.8447094 H 5.4014957 V 3.5363232 H 5.8774356 L 6.8758243,5.4214794 V 3.5363232 h 0.2868042 z"
       id="text2"
       aria-label="FUN&#10;" />
    <path
       d="M 3.2292911,6.3663938 V 7.7006022 H 3.1086493 V 6.3663938 Z m 0.5004398,0.4191184 v 0.1697921 q 0.1537065,-0.1921332 0.3342223,-0.1921332 0.1242164,0 0.1939205,0.077747 0.062555,0.06881 0.062555,0.1805158 V 7.7006022 H 4.2051488 V 7.0687969 q 0,-0.2028569 -0.1697921,-0.2028569 -0.1590684,0 -0.3020512,0.1903459 V 7.7006022 H 3.6198129 v -0.91509 z M 5.3507986,7.0250084 5.2390933,7.0580732 Q 5.189943,6.8561099 5.0067462,6.8561099 q -0.13494,0 -0.2082187,0.1143863 -0.064342,0.1018753 -0.064342,0.2707737 0,0.1966014 0.084002,0.3002639 0.071492,0.088471 0.1885586,0.088471 0.1930268,0 0.2421772,-0.2055378 l 0.1090244,0.036639 q -0.08579,0.2618373 -0.3512016,0.2618373 -0.1894522,0 -0.2957957,-0.1456638 -0.093832,-0.1277909 -0.093832,-0.332435 0,-0.2341344 0.122429,-0.3672871 0.1054498,-0.1143863 0.2671991,-0.1143863 0.1349401,0 0.2260916,0.075066 0.083109,0.067023 0.1179608,0.1867713 z M 5.7708107,7.5138309 V 7.7006022 H 5.587614 V 7.5138309 Z"
       id="text5"
       style="font-size:1.83018px;font-family:'Yu Gothic';-inkscape-font-specification:'Yu Gothic';fill:#ffffff;stroke-width:0.0370562"
       aria-label="Inc." />
  </g>
</svg>
